<svg width="50" height="50" viewBox="0 0 50 50" fill="none" xmlns="http://www.w3.org/2000/svg">
<path d="M47 40.9631V37.342H45.0581V32.2842H40.7442V29.7238H41.0702V29.2632H41.5057V28.3404H41.8677V26.3255H34.7936V28.3404H35.1556V29.2632H35.5911V29.7238H35.9171V36.2484H33.2802V35.0181H33.6839V33.1043H33.2802V32.9239C33.2802 32.9239 33.2594 25.735 32.0429 22.673C30.8278 19.6109 28.2603 17.8803 26.6402 17.082C25.9591 16.7471 25.1019 15.9297 25.0159 16.0049C24.9299 15.9297 24.0727 16.7471 23.3916 17.082C21.7715 17.8803 19.204 19.6109 17.9889 22.673C16.7738 25.735 16.7516 32.9239 16.7516 32.9239V33.1043H16.3452V35.0181H16.7516V37.0686H13.8345V32.3211H14.1605V31.8604H14.596V30.9377H14.9581V28.9228H7.88387V30.9377H8.2459V31.8604H8.68145V32.3211H9.00742V36.2484H7.88387V33.1043H4V41H47V40.9631Z" fill="#FF0026"/>
<path d="M22 10.4485C22 10.4485 19.2735 13.3063 17.3083 14.2455C15.3418 15.1847 10 16 10 16C10 16 11.3177 14.6278 12.7654 13.2068C12.0563 12.7302 11.5402 11.9359 11.3874 10.967L11.2922 10.3665L14.6662 11.4C15.3995 10.7366 16.0107 10.2373 16.3029 10.1238C17.3579 9.71531 22 10.4485 22 10.4485Z" fill="#FF0026"/>
</svg>
