<svg width="231" height="50" viewBox="0 0 231 50" fill="none" xmlns="http://www.w3.org/2000/svg">
<rect width="231" height="50" fill="white"/>
<path d="M50 40.9631V37.342H48.0581V32.2842H43.7442V29.7238H44.0702V29.2632H44.5057V28.3404H44.8677V26.3255H37.7936V28.3404H38.1556V29.2632H38.5911V29.7238H38.9171V36.2484H36.2802V35.0181H36.6839V33.1043H36.2802V32.9239C36.2802 32.9239 36.2594 25.735 35.0429 22.673C33.8278 19.6109 31.2603 17.8803 29.6402 17.082C28.9591 16.7471 28.1019 15.9297 28.0159 16.0049C27.9299 15.9297 27.0727 16.7471 26.3916 17.082C24.7715 17.8803 22.204 19.6109 20.9889 22.673C19.7738 25.735 19.7516 32.9239 19.7516 32.9239V33.1043H19.3452V35.0181H19.7516V37.0686H16.8345V32.3211H17.1605V31.8604H17.596V30.9377H17.9581V28.9228H10.8839V30.9377H11.2459V31.8604H11.6815V32.3211H12.0074V36.2484H10.8839V33.1043H7V41H50V40.9631Z" fill="#FF0026"/>
<path d="M25 10.4485C25 10.4485 22.2735 13.3063 20.3083 14.2455C18.3418 15.1847 13 16 13 16C13 16 14.3177 14.6278 15.7654 13.2068C15.0563 12.7302 14.5402 11.9359 14.3874 10.967L14.2922 10.3665L17.6662 11.4C18.3995 10.7366 19.0107 10.2373 19.3029 10.1238C20.3579 9.71531 25 10.4485 25 10.4485Z" fill="#FF0026"/>
<path d="M73.88 37.32C72.088 37.32 70.4347 37.0533 68.92 36.52C67.4053 35.9653 66.0933 35.1867 64.984 34.184C63.8747 33.16 63.0107 31.9333 62.392 30.504C61.7733 29.0747 61.464 27.4853 61.464 25.736C61.464 24.0933 61.7733 22.5787 62.392 21.192C63.032 19.784 63.928 18.568 65.08 17.544C66.2533 16.4987 67.6187 15.688 69.176 15.112C70.7333 14.536 72.44 14.248 74.296 14.248C75.6827 14.248 76.9733 14.4187 78.168 14.76C79.384 15.1013 80.472 15.5493 81.432 16.104C82.4133 16.6587 83.2133 17.2773 83.832 17.96L80.856 21.16C80.2587 20.648 79.608 20.2 78.904 19.816C78.2213 19.432 77.4853 19.1333 76.696 18.92C75.928 18.6853 75.1173 18.568 74.264 18.568C73.1547 18.568 72.12 18.7493 71.16 19.112C70.2213 19.4747 69.3893 19.976 68.664 20.616C67.96 21.256 67.4053 22.0133 67 22.888C66.616 23.7627 66.424 24.712 66.424 25.736C66.424 26.8667 66.6267 27.88 67.032 28.776C67.4587 29.672 68.0347 30.4293 68.76 31.048C69.4853 31.6667 70.3173 32.1467 71.256 32.488C72.216 32.808 73.24 32.968 74.328 32.968C75.2027 32.968 76.0347 32.8613 76.824 32.648C77.6347 32.4347 78.3387 32.136 78.936 31.752C79.5333 31.3467 79.992 30.8667 80.312 30.312C80.632 29.7573 80.7813 29.1707 80.76 28.552V27.88L81.4 28.872H73.912V24.904H85.432C85.4533 25.1813 85.4747 25.48 85.496 25.8C85.5387 26.12 85.56 26.4293 85.56 26.728C85.5813 27.0053 85.592 27.2187 85.592 27.368C85.592 28.904 85.2933 30.2907 84.696 31.528C84.12 32.7653 83.3093 33.8107 82.264 34.664C81.24 35.5173 80.0133 36.1787 78.584 36.648C77.1547 37.096 75.5867 37.32 73.88 37.32ZM100.227 37.32C98.307 37.32 96.5897 36.9467 95.075 36.2C93.5817 35.432 92.3977 34.3867 91.523 33.064C90.6697 31.7413 90.243 30.2267 90.243 28.52C90.243 26.8133 90.6697 25.3093 91.523 24.008C92.3977 22.6853 93.5817 21.64 95.075 20.872C96.5897 20.104 98.307 19.72 100.227 19.72C102.168 19.72 103.886 20.104 105.379 20.872C106.872 21.64 108.046 22.6853 108.899 24.008C109.774 25.3093 110.211 26.8133 110.211 28.52C110.211 30.2267 109.774 31.7413 108.899 33.064C108.046 34.3867 106.872 35.432 105.379 36.2C103.886 36.9467 102.168 37.32 100.227 37.32ZM100.227 33.352C101.251 33.352 102.168 33.1493 102.979 32.744C103.79 32.3173 104.43 31.7413 104.899 31.016C105.39 30.2693 105.624 29.4373 105.603 28.52C105.624 27.5813 105.39 26.7493 104.899 26.024C104.43 25.2773 103.79 24.7013 102.979 24.296C102.168 23.8693 101.251 23.656 100.227 23.656C99.2243 23.656 98.307 23.8693 97.475 24.296C96.643 24.7227 95.9923 25.2987 95.523 26.024C95.0537 26.728 94.8297 27.56 94.851 28.52C94.8297 29.4373 95.0537 30.2693 95.523 31.016C95.9923 31.7413 96.643 32.3173 97.475 32.744C98.307 33.1493 99.2243 33.352 100.227 33.352ZM124.914 37.32C123.356 37.32 121.948 37.16 120.69 36.84C119.431 36.4987 118.29 36.008 117.266 35.368C116.263 34.728 115.356 33.96 114.546 33.064L117.298 29.48C118.578 30.8667 119.858 31.8373 121.138 32.392C122.439 32.9467 123.794 33.224 125.202 33.224C125.906 33.224 126.588 33.1387 127.25 32.968C127.911 32.776 128.444 32.4987 128.85 32.136C129.255 31.752 129.458 31.2827 129.458 30.728C129.458 30.344 129.351 30.0133 129.138 29.736C128.946 29.4587 128.668 29.224 128.306 29.032C127.943 28.84 127.516 28.6693 127.026 28.52C126.556 28.3493 126.055 28.2107 125.522 28.104C125.01 27.9973 124.466 27.912 123.89 27.848C122.588 27.6347 121.426 27.336 120.402 26.952C119.378 26.568 118.514 26.0987 117.81 25.544C117.127 24.968 116.604 24.3067 116.242 23.56C115.879 22.792 115.698 21.9173 115.698 20.936C115.698 19.9333 115.932 19.016 116.402 18.184C116.892 17.3307 117.554 16.6053 118.386 16.008C119.239 15.4107 120.22 14.952 121.33 14.632C122.46 14.312 123.655 14.152 124.914 14.152C126.364 14.152 127.644 14.3013 128.754 14.6C129.884 14.8987 130.876 15.3253 131.73 15.88C132.583 16.4347 133.287 17.096 133.842 17.864L131.026 21C130.514 20.4027 129.927 19.9013 129.266 19.496C128.604 19.0907 127.9 18.792 127.154 18.6C126.428 18.3867 125.671 18.28 124.882 18.28C124.071 18.28 123.346 18.376 122.706 18.568C122.087 18.7387 121.586 19.0053 121.202 19.368C120.839 19.7093 120.658 20.136 120.658 20.648C120.658 21.0747 120.786 21.448 121.042 21.768C121.319 22.0667 121.682 22.3227 122.13 22.536C122.599 22.7493 123.143 22.9307 123.762 23.08C124.38 23.2293 125.02 23.3573 125.682 23.464C126.898 23.656 128.039 23.912 129.106 24.232C130.172 24.552 131.1 24.9573 131.89 25.448C132.679 25.9387 133.287 26.568 133.714 27.336C134.162 28.0827 134.386 28.9893 134.386 30.056C134.386 31.5707 133.98 32.872 133.17 33.96C132.38 35.048 131.271 35.88 129.842 36.456C128.412 37.032 126.77 37.32 124.914 37.32ZM142.67 37V15.4H147.214V37H142.67ZM138.734 24.136V20.072H151.694V24.136H138.734ZM164.499 37.32C162.835 37.32 161.363 36.9467 160.083 36.2C158.824 35.432 157.832 34.3867 157.107 33.064C156.403 31.7413 156.051 30.216 156.051 28.488C156.051 26.7813 156.414 25.2773 157.139 23.976C157.886 22.6533 158.899 21.6187 160.179 20.872C161.48 20.104 162.974 19.72 164.659 19.72C165.64 19.72 166.547 19.848 167.379 20.104C168.211 20.36 168.936 20.712 169.555 21.16C170.174 21.5867 170.675 22.0667 171.059 22.6C171.464 23.112 171.72 23.656 171.827 24.232L170.803 24.2V20.072H175.283V37H170.739V32.68L171.699 32.776C171.571 33.3307 171.304 33.8747 170.899 34.408C170.494 34.9413 169.96 35.432 169.299 35.88C168.659 36.3067 167.923 36.6587 167.091 36.936C166.28 37.192 165.416 37.32 164.499 37.32ZM165.715 33.384C166.739 33.384 167.635 33.1813 168.403 32.776C169.192 32.3707 169.8 31.8053 170.227 31.08C170.654 30.3333 170.867 29.4693 170.867 28.488C170.867 27.5493 170.654 26.7173 170.227 25.992C169.8 25.2667 169.192 24.6907 168.403 24.264C167.635 23.8373 166.739 23.624 165.715 23.624C164.691 23.624 163.795 23.8373 163.027 24.264C162.259 24.6907 161.651 25.2667 161.203 25.992C160.776 26.7173 160.563 27.5493 160.563 28.488C160.563 29.4693 160.776 30.3333 161.203 31.08C161.651 31.8053 162.259 32.3707 163.027 32.776C163.795 33.1813 164.691 33.384 165.715 33.384ZM183.283 37V20.072H187.635L187.731 24.04L186.643 24.36C186.942 23.5493 187.422 22.792 188.083 22.088C188.766 21.384 189.587 20.8187 190.547 20.392C191.507 19.944 192.542 19.72 193.651 19.72C195.123 19.72 196.35 20.008 197.331 20.584C198.334 21.16 199.091 21.9707 199.603 23.016C200.115 24.0613 200.371 25.32 200.371 26.792V37H195.827V27.4C195.827 26.568 195.678 25.8747 195.379 25.32C195.081 24.7653 194.643 24.3493 194.067 24.072C193.513 23.7733 192.862 23.624 192.115 23.624C191.475 23.624 190.889 23.7413 190.355 23.976C189.843 24.1893 189.395 24.4773 189.011 24.84C188.627 25.2027 188.329 25.608 188.115 26.056C187.902 26.4827 187.795 26.9307 187.795 27.4V37H185.555C184.958 37 184.467 37 184.083 37C183.721 37 183.454 37 183.283 37ZM214.649 37.32C212.836 37.32 211.215 37.064 209.785 36.552C208.356 36.0187 207.193 35.2507 206.297 34.248L209.145 31.752C209.849 32.4773 210.692 33.0213 211.673 33.384C212.655 33.7467 213.7 33.928 214.809 33.928C215.193 33.928 215.567 33.896 215.929 33.832C216.313 33.768 216.644 33.672 216.921 33.544C217.199 33.3947 217.423 33.2133 217.593 33C217.764 32.7867 217.849 32.5413 217.849 32.264C217.849 31.7947 217.561 31.4213 216.985 31.144C216.623 31.016 216.153 30.8773 215.577 30.728C215.023 30.5787 214.393 30.44 213.689 30.312C212.495 30.056 211.449 29.768 210.553 29.448C209.657 29.128 208.911 28.7333 208.313 28.264C207.844 27.816 207.481 27.3147 207.225 26.76C206.969 26.2053 206.841 25.5653 206.841 24.84C206.841 24.072 207.033 23.368 207.417 22.728C207.801 22.088 208.345 21.5547 209.049 21.128C209.753 20.68 210.553 20.3387 211.449 20.104C212.367 19.848 213.337 19.72 214.361 19.72C215.343 19.72 216.303 19.8267 217.241 20.04C218.201 20.232 219.108 20.52 219.961 20.904C220.815 21.288 221.551 21.768 222.169 22.344L219.801 25.096C219.332 24.7333 218.788 24.4027 218.169 24.104C217.551 23.784 216.9 23.5387 216.217 23.368C215.556 23.176 214.905 23.08 214.265 23.08C213.881 23.08 213.497 23.112 213.113 23.176C212.751 23.2187 212.431 23.304 212.153 23.432C211.876 23.56 211.652 23.72 211.481 23.912C211.332 24.104 211.257 24.3387 211.257 24.616C211.257 24.8507 211.311 25.064 211.417 25.256C211.545 25.4267 211.716 25.576 211.929 25.704C212.249 25.9173 212.708 26.1093 213.305 26.28C213.903 26.4293 214.639 26.6 215.513 26.792C216.751 27.048 217.817 27.3467 218.713 27.688C219.631 28.008 220.367 28.4133 220.921 28.904C221.369 29.2453 221.711 29.672 221.945 30.184C222.18 30.6747 222.297 31.2293 222.297 31.848C222.297 32.936 221.956 33.896 221.273 34.728C220.612 35.5387 219.705 36.1787 218.553 36.648C217.423 37.096 216.121 37.32 214.649 37.32Z" fill="black"/>
</svg>
